<svg xmlns="http://www.w3.org/2000/svg" xmlns:xlink="http://www.w3.org/1999/xlink" width="500" zoomAndPan="magnify" viewBox="0 0 375 374.999991" height="500" preserveAspectRatio="xMidYMid meet" version="1.0"><defs><clipPath id="45a990172f"><path d="M 65.027344 141.125 L 140.027344 141.125 L 140.027344 216.125 L 65.027344 216.125 Z M 65.027344 141.125 " clip-rule="nonzero"/></clipPath></defs><path fill="#ffffff" d="M 251.492188 187.785156 C 251.492188 192.109375 249.777344 196.253906 246.722656 199.308594 L 171.785156 274.246094 C 168.601562 277.425781 164.433594 279.011719 160.261719 279.011719 C 156.09375 279.011719 151.925781 277.425781 148.746094 274.246094 C 142.382812 267.878906 142.382812 257.566406 148.746094 251.203125 L 212.398438 187.550781 L 148.746094 123.898438 C 142.382812 117.535156 142.382812 107.222656 148.746094 100.859375 C 155.109375 94.492188 165.421875 94.492188 171.785156 100.859375 L 246.722656 175.792969 C 249.777344 178.847656 251.492188 182.992188 251.492188 187.316406 Z M 187.550781 0.03125 C 83.984375 0.03125 0.03125 83.984375 0.03125 187.550781 C 0.03125 291.117188 83.984375 375.070312 187.550781 375.070312 C 291.117188 375.070312 375.070312 291.117188 375.070312 187.550781 C 375.070312 83.984375 291.117188 0.03125 187.550781 0.03125 " fill-opacity="1" fill-rule="nonzero"/><g clip-path="url(#45a990172f)"><path fill="#ffffff" d="M 65.027344 141.125 L 140.015625 141.125 L 140.015625 216.117188 L 65.027344 216.117188 Z M 65.027344 141.125 " fill-opacity="1" fill-rule="nonzero"/></g></svg>
