<svg xmlns="http://www.w3.org/2000/svg" xmlns:xlink="http://www.w3.org/1999/xlink" width="500" zoomAndPan="magnify" viewBox="0 0 375 374.999991" height="500" preserveAspectRatio="xMidYMid meet" version="1.0"><defs><clipPath id="3a4c63ef48"><path d="M 2 49 L 373 49 L 373 328.640625 L 2 328.640625 Z M 2 49 " clip-rule="nonzero"/></clipPath><clipPath id="7b2446da8c"><path d="M 109.53125 275.867188 L 144.78125 275.867188 L 144.78125 311.117188 L 109.53125 311.117188 Z M 109.53125 275.867188 " clip-rule="nonzero"/></clipPath></defs><g clip-path="url(#3a4c63ef48)"><path fill="#ffb300" d="M 363.894531 57.648438 C 352.90625 46.65625 335.0625 46.65625 324.074219 57.648438 C 324.074219 57.648438 152.816406 229.070312 123.230469 258.691406 C 122.082031 259.84375 120.527344 260.492188 118.902344 260.492188 C 117.277344 260.492188 115.722656 259.84375 114.574219 258.691406 C 99.578125 243.679688 50.757812 194.820312 50.757812 194.820312 C 39.769531 183.8125 21.925781 183.8125 10.933594 194.820312 C -0.0546875 205.8125 -0.0546875 223.679688 10.933594 234.671875 C 10.933594 234.671875 76.953125 300.765625 94.664062 318.484375 C 101.089844 324.917969 109.8125 328.535156 118.902344 328.535156 C 127.992188 328.535156 136.714844 324.917969 143.140625 318.484375 C 174.363281 287.234375 363.894531 97.511719 363.894531 97.511719 C 374.886719 86.507812 374.886719 68.652344 363.894531 57.648438 Z M 363.894531 57.648438 " fill-opacity="1" fill-rule="evenodd"/></g><g clip-path="url(#7b2446da8c)"><path fill="#ffb300" d="M 109.53125 275.867188 L 144.773438 275.867188 L 144.773438 311.113281 L 109.53125 311.113281 Z M 109.53125 275.867188 " fill-opacity="1" fill-rule="nonzero"/></g></svg>
